<svg width="25" height="24" viewBox="0 0 25 24" fill="none" xmlns="http://www.w3.org/2000/svg">
    <path d="M18.3454 7.46393C18.7069 7.10238 18.7069 6.51619 18.3454 6.15464C17.9838 5.79309 17.3976 5.79309 17.0361 6.15464L12.5 10.6907L7.96393 6.15464C7.60238 5.79309 7.01619 5.79309 6.65464 6.15464C6.29309 6.51619 6.29309 7.10238 6.65464 7.46393L11.1907 12L6.65464 16.5361C6.29309 16.8976 6.29309 17.4838 6.65464 17.8454C7.01619 18.2069 7.60238 18.2069 7.96393 17.8454L12.5 13.3093L17.0361 17.8454C17.3976 18.2069 17.9838 18.2069 18.3454 17.8454C18.7069 17.4838 18.7069 16.8976 18.3454 16.5361L13.8093 12L18.3454 7.46393Z" fill="#A9A9A9"/>
    </svg>
    