<?xml version="1.0" encoding="iso-8859-1"?>
<!-- Uploaded to: SVG Repo, www.svgrepo.com, Generator: SVG Repo Mixer Tools -->
<svg fill="#FFFFFF" height="800px" width="800px" version="1.1" id="Layer_1" xmlns="http://www.w3.org/2000/svg" xmlns:xlink="http://www.w3.org/1999/xlink" 
	 viewBox="0 0 512 512" xml:space="preserve">
<g>
	<g>
		<path d="M402.06,22.234H109.941L0,159.629l256.058,330.137L512,159.628L402.06,22.234z M483.794,151.301h-136.65l52.523-105.137
			L483.794,151.301z M384.416,39.054l-51.55,103.192L270.914,39.054H384.416z M318.684,151.301H205.08l51.646-103.202
			L318.684,151.301z M242.442,39.054l-51.645,103.202L128.84,39.054H242.442z M112.996,45.338l63.614,105.963H28.207L112.996,45.338
			z M27.873,168.121h156.728l56.001,274.274L27.873,168.121z M201.768,168.121h121.055l-66.021,269.531L201.768,168.121z
			 M340.139,168.121h143.993L273.629,439.648L340.139,168.121z"/>
	</g>
</g>
</svg>