<svg xmlns="http://www.w3.org/2000/svg" viewBox="0 0 24 29" width="24" height="29" style="font-size: 30px;"><path width="24" height="29" viewBox="0 0 24 29" fill="#499557" xmlns="http://www.w3.org/2000/svg" d="M20.7418 3.25678H15.4522C14.9207 1.78883 13.5286 0.72583 11.8835 0.72583C10.2384 0.72583 8.84639 1.78883 8.31489 3.25678H3.02521C1.63319 3.25678 0.494263 4.3957 0.494263 5.78772V26.0353C0.494263 27.4273 1.63319 28.5662 3.02521 28.5662H20.7418C22.1339 28.5662 23.2728 27.4273 23.2728 26.0353V5.78772C23.2728 4.3957 22.1339 3.25678 20.7418 3.25678ZM11.8835 3.25678C12.5795 3.25678 13.149 3.82624 13.149 4.52225C13.149 5.21826 12.5795 5.78772 11.8835 5.78772C11.1875 5.78772 10.618 5.21826 10.618 4.52225C10.618 3.82624 11.1875 3.25678 11.8835 3.25678ZM20.7418 26.0353H3.02521V5.78772H5.55615V9.58414H18.2109V5.78772H20.7418V26.0353Z"></path></svg>