<svg width="19" height="18" viewBox="0 0 19 18" fill="none" xmlns="http://www.w3.org/2000/svg">
    <path d="M5.2643 4.76217C6.48805 3.5399 8.22232 2.83502 10.1293 3.02999C12.8846 3.30744 15.1519 5.54203 15.4597 8.29403C15.8726 11.9309 13.0573 14.9978 9.50613 14.9978C7.11119 14.9978 5.05409 13.5956 4.09311 11.5784C3.85286 11.076 4.21323 10.4986 4.7688 10.4986C5.04658 10.4986 5.30935 10.6486 5.42947 10.8961C6.27784 12.7182 8.31241 13.873 10.5347 13.3781C12.2014 13.0107 13.5453 11.6534 13.8981 9.98872C14.5288 7.07925 12.314 4.49972 9.50613 4.49972C8.25986 4.49972 7.14873 5.01713 6.3379 5.83448L7.47155 6.96677C7.94454 7.43918 7.6142 8.24903 6.94602 8.24903H4.25077C3.83784 8.24903 3.5 7.9116 3.5 7.49917V4.80716C3.5 4.13979 4.31083 3.80235 4.78381 4.27476L5.2643 4.76217Z" fill="#A9A9A9"/>
    </svg>
    