<svg width="25" height="24" viewBox="0 0 25 24" fill="none" xmlns="http://www.w3.org/2000/svg">
    <path fill-rule="evenodd" clip-rule="evenodd" d="M19.25 5.5H16.25C15.9739 5.5 15.75 5.72386 15.75 6V9C15.75 9.27614 15.9739 9.5 16.25 9.5H19.25C19.5261 9.5 19.75 9.27614 19.75 9V6C19.75 5.72386 19.5261 5.5 19.25 5.5ZM16.25 4C15.1454 4 14.25 4.89543 14.25 6V9C14.25 10.1046 15.1454 11 16.25 11H19.25C20.3546 11 21.25 10.1046 21.25 9V6C21.25 4.89543 20.3546 4 19.25 4H16.25ZM5 9C5 6.37665 7.12665 4.25 9.75 4.25H11.25C11.6642 4.25 12 4.58579 12 5C12 5.41421 11.6642 5.75 11.25 5.75H9.75C7.95508 5.75 6.5 7.20507 6.5 9V9.59861L6.83398 9.37596C7.17862 9.1462 7.64428 9.23933 7.87404 9.58397C8.10381 9.92862 8.01067 10.3943 7.66603 10.624L6.16603 11.624C5.9141 11.792 5.5859 11.792 5.33398 11.624L3.83398 10.624C3.48933 10.3943 3.3962 9.92862 3.62597 9.58397C3.85573 9.23933 4.32138 9.1462 4.66603 9.37596L5 9.59861V9ZM20.166 13.876L21.666 14.876C22.0107 15.1057 22.1038 15.5714 21.874 15.916C21.6443 16.2607 21.1786 16.3538 20.834 16.124L20.5 15.9014V16C20.5 18.6234 18.3734 20.75 15.75 20.75H14.25C13.8358 20.75 13.5 20.4142 13.5 20C13.5 19.5858 13.8358 19.25 14.25 19.25H15.75C17.5449 19.25 19 17.7949 19 16V15.9014L18.666 16.124C18.3214 16.3538 17.8557 16.2607 17.626 15.916C17.3962 15.5714 17.4893 15.1057 17.834 14.876L19.334 13.876C19.5859 13.708 19.9141 13.708 20.166 13.876ZM6.25 15.5H9.25C9.52615 15.5 9.75 15.7239 9.75 16V19C9.75 19.2761 9.52615 19.5 9.25 19.5H6.25C5.97386 19.5 5.75 19.2761 5.75 19V16C5.75 15.7239 5.97386 15.5 6.25 15.5ZM4.25 16C4.25 14.8954 5.14543 14 6.25 14H9.25C10.3546 14 11.25 14.8954 11.25 16V19C11.25 20.1046 10.3546 21 9.25 21H6.25C5.14543 21 4.25 20.1046 4.25 19V16Z" fill="white"/>
    </svg>
    