<svg width="32" height="32" viewBox="0 0 32 32" fill="none" xmlns="http://www.w3.org/2000/svg">
<path d="M12.7319 19.8158L14.6564 24.2147C14.7875 24.5143 15.2125 24.5143 15.3436 24.2147L17.2681 19.8158C17.3097 19.7207 17.3889 19.647 17.4868 19.6125L22.0744 17.9933C22.399 17.8788 22.4107 17.424 22.0924 17.293L17.4855 15.396C17.3885 15.3561 17.3127 15.2773 17.2764 15.1789L15.3519 9.9551C15.2314 9.62795 14.7686 9.62795 14.6481 9.9551L12.7236 15.1789C12.6873 15.2773 12.6115 15.3561 12.5145 15.396L7.90758 17.293C7.58929 17.424 7.60096 17.8788 7.92556 17.9933L12.5132 19.6125C12.6111 19.647 12.6903 19.7207 12.7319 19.8158Z" fill="#DD7F3B"/>
<path d="M21.8584 10.3907L22.8679 12.698C22.9183 12.8132 23.0817 12.8132 23.1321 12.698L24.1416 10.3907C24.1576 10.3541 24.188 10.3258 24.2257 10.3125L26.644 9.45897C26.7689 9.41491 26.7734 9.24001 26.6509 9.1896L24.2252 8.19077C24.1879 8.17541 24.1587 8.14512 24.1448 8.10726L23.1353 5.36735C23.089 5.24152 22.911 5.24152 22.8647 5.36735L21.8552 8.10726C21.8413 8.14512 21.8121 8.17541 21.7748 8.19077L19.3491 9.1896C19.2266 9.24001 19.2311 9.41491 19.356 9.45897L21.7743 10.3125C21.812 10.3258 21.8424 10.3541 21.8584 10.3907Z" fill="#DD7F3B"/>
</svg>
