<svg height="35" fill="none" viewBox="0 0 416 112"><path fill="#499557" d="M56 109c29.27 0 53-23.729 53-52.996C109.009 26.73 85.278 3 56 3 26.73 3 3 26.729 3 55.996 3 85.27 26.73 109 56 109Z"></path><path d="M67.291 15.887c-3.588 3.822-9.595 13.875-11.891 22.09-1.006-.667-2.15-2.46-1.396-5.945.018-.052.07-.095.122-.078l1.395.122c.104.008.156-.122.078-.191l-1.248-1.196c-.026-.026-.044-.052-.044-.078.052-1.283.295-3.822.859-4.48.034-.044.095-.044.138-.018l1.829 1.222c.095.07.217-.052.147-.147l-1.386-2.054c-.035-.026-.035-.06-.018-.104.806-1.638 2.47-4.88 3.147-5.512.043-.043.095-.026.138 0l1.318 1.092c.095.07.216-.017.173-.121l-.945-2.384c-.008-.026-.008-.069.017-.095 1.145-1.664 3.849-4.975 5.894-5.39.044-.018.096.008.122.051l.728 1.274c.052.104.216.052.199-.069l-.19-2.002c0-.035.008-.078.051-.104 1.144-.598 4.282-1.647 8.277-1.456.078-.017.122.052.104.121l-2.686 8.19c-.009.052-.061.078-.104.078l-2.002-.164c-.122-.018-.165.147-.07.199l1.76 1.075c.06.026.069.095.043.147l-1.725 2.947c-.008.026-.052.052-.078.052l-2.418.216c-.121.017-.13.165-.026.217l1.76.728c.069.026.095.095.052.165l-1.803 3.145c-.009.026-.052.052-.078.052l-3.025.27a.105.105 0 0 0-.043.198l1.586.858c.052.026.069.096.052.148-.624 1.23-2.037 3.804-3.233 4.073l-1.95.511c-.104.026-.104.191 0 .217l1.612.407c.06.009.104.096.078.148-.936 2.045-2.86 4.602-6.024 4.047 1.95-8.12 6.275-15.869 11.25-22.152L68 16c-.017-.156-.042-.33-.414-.339a.27.27 0 0 0-.217.122l-.078.104Zm2.119 80.772a3.087 3.087 0 0 1 3.085-3.086 3.092 3.092 0 0 1 3.086 3.086 3.087 3.087 0 0 1-6.171 0Zm-5.487-19.223H47.697v3.094h16.225v-3.094Zm-36.19-3.744V40.465c0-.815.66-1.474 1.474-1.474h53.598c.815 0 1.473.66 1.473 1.474v33.227c0 .815-.658 1.473-1.473 1.473H29.207a1.472 1.472 0 0 1-1.473-1.473Zm8.538-16.406a4.764 4.764 0 0 0 4.767 4.767 4.77 4.77 0 0 0 4.767-4.767 4.764 4.764 0 0 0-4.767-4.766 4.764 4.764 0 0 0-4.767 4.766Zm29.945 0a4.764 4.764 0 0 0 4.767 4.767 4.77 4.77 0 0 0 4.767-4.767 4.764 4.764 0 0 0-4.767-4.766 4.764 4.764 0 0 0-4.767 4.766ZM21.272 96.017a52.283 52.283 0 0 0 5.824 4.394v-9.186c-1.672 0-4.29 1.516-5.824 4.792ZM56.011 109a52.781 52.781 0 0 1-26.617-7.176v-8.25h30.855v15.244a52.461 52.461 0 0 1-4.238.182ZM35.972 96.182h-2.098c-.606 0-1.1.485-1.1 1.1 0 .607.494 1.101 1.1 1.101h21.894c.607 0 1.1-.494 1.1-1.1 0-.607-.493-1.1-1.1-1.1H35.972Zm45.174-13.338h-50.27c-.815 0-1.473.66-1.473 1.474v6.959h33.143V108.584a52.582 52.582 0 0 0 20.073-6.76V84.318c0-.815-.658-1.474-1.473-1.474Zm-8.65 19.179a5.373 5.373 0 1 1 0-10.746 5.372 5.372 0 1 1 0 10.746Zm12.417-10.798c1.673 0 4.29 1.516 5.825 4.792a54.612 54.612 0 0 1-5.825 4.403v-9.195Z" fill="#FFF" clip-rule="evenodd" fill-rule="evenodd"></path></svg>